# xmcd
#
# Track frame offsets:
#	150
#	17844
#	40079
#	62783
#	91353
#	115812
#	137840
#	156884
#	172767
#	201534
#
# Disc length: 2917 seconds
#
# Revision: 3
# Processed by: cddbd v1.5.2PL0 Copyright (c) Steve Scherf et al.
# Submitted via: audiograbber 1.83.01
#
DISCID=840b630a
DTITLE=Hugo Race and TheTrue Spirit - Chemical Wedding
DYEAR=1998
DGENRE=Indie
TTITLE0=Stranger in My Eyes
TTITLE1=Prima Materia
TTITLE2=Apocalypse
TTITLE3=Come Is the Kingdom
TTITLE4=Chiara
TTITLE5=Great White
TTITLE6=Can't Find a Reason
TTITLE7=Blood From a Stone
TTITLE8=Silver Fox
TTITLE9=Full Moon
EXTD=GRCD 424 - www.helixed.net
EXTT0=
EXTT1=
EXTT2=
EXTT3=
EXTT4=
EXTT5=
EXTT6=
EXTT7=
EXTT8=
EXTT9=
PLAYORDER=
